# xmcd
#
# Track frame offsets:
#	150
#	21772
#	42772
#	62207
#	84515
#	96907
#	115837
#	131860
#	152885
#
# Disc length: 2293 seconds
# Revision: 8
# Processed by: cddbd v1.5.2PL0 Copyright (c) Steve Scherf et al.
# Submitted via: dBpowerAMP V12.0
#
DISCID=7408f309
DTITLE=中島美雪 - 御色なおし [dBP-LITE-FLAC@]
DYEAR=1985
DGENRE=Japanese Pop
TTITLE0=ひとりぽっちで踊らせて
TTITLE1=すずめ
TTITLE2=最愛
TTITLE3=さよならの鐘
TTITLE4=海と宝石
TTITLE5=カム・フラージュ
TTITLE6=煙草
TTITLE7=美貌の都
TTITLE8=かもめはかもめ
EXTD=
EXTT0=
EXTT1=
EXTT2=
EXTT3=
EXTT4=
EXTT5=
EXTT6=
EXTT7=
EXTT8=
PLAYORDER=
